<svg width="24" height="20" viewBox="0 0 24 20" fill="none" xmlns="http://www.w3.org/2000/svg">
<path d="M21.7673 4.1464C20.7257 2.86627 19.3109 1.85512 17.5232 1.11306C15.7356 0.371079 13.7826 0 11.6648 0C10.0852 0 8.575 0.2191 7.13432 0.657392C5.69364 1.09564 4.45259 1.68801 3.41108 2.43436C2.36938 3.1808 1.54072 4.06824 0.924416 5.09662C0.308108 6.12505 0 7.20349 0 8.33178C0 9.63357 0.392602 10.8534 1.17812 11.9903C1.96365 13.1271 3.03753 14.082 4.40029 14.8544C4.30471 15.2014 4.1919 15.5313 4.06167 15.8436C3.93149 16.156 3.81435 16.4124 3.7102 16.6119C3.60596 16.8115 3.46507 17.0329 3.287 17.2759C3.10922 17.5189 2.9747 17.6904 2.88355 17.7901C2.79249 17.8899 2.64279 18.0551 2.43436 18.2848C2.2262 18.5149 2.0916 18.6645 2.03091 18.7341C2.02211 18.7382 1.98745 18.7775 1.92671 18.8512C1.86602 18.9248 1.83556 18.9617 1.83556 18.9617L1.75745 19.0787C1.714 19.1439 1.69448 19.1851 1.69877 19.2021C1.70314 19.2191 1.69448 19.2628 1.67278 19.3321C1.65103 19.4017 1.65326 19.4538 1.67925 19.4886V19.5016C1.71413 19.658 1.79005 19.7837 1.90715 19.879C2.02425 19.9744 2.15676 20.0135 2.30422 19.9959C2.8685 19.9265 3.36315 19.8315 3.78836 19.7097C6.06235 19.128 8.0586 18.0781 9.77697 16.559C10.4278 16.6284 11.057 16.6632 11.6646 16.6632C13.7822 16.6632 15.7352 16.2922 17.523 15.5499C19.3108 14.8079 20.7255 13.7967 21.7669 12.5168C22.8085 11.2372 23.3293 9.84186 23.3293 8.33173C23.3293 6.82156 22.8086 5.4263 21.7673 4.1464Z" fill="#656363"/>
</svg>
