<svg width="18" height="20" viewBox="0 0 18 20" fill="none" xmlns="http://www.w3.org/2000/svg">
<g clip-path="url(#clip0)">
<path d="M14.6423 2.26385H14.1411V16.631C14.1411 17.5855 13.4751 18.3624 12.657 18.3624H7.57822H3.53955V18.895C3.53955 19.5049 3.96383 19.9998 4.48656 19.9998H9.56354H14.6405C15.1632 19.9998 15.5875 19.5049 15.5875 18.895V3.3687C15.5875 2.75884 15.165 2.26385 14.6423 2.26385Z" fill="#656363"/>
<path d="M7.57786 17.736H12.6548C13.1776 17.736 13.6018 17.241 13.6018 16.6312V2.26396V1.10481C13.6018 0.494957 13.1776 -3.05176e-05 12.6548 -3.05176e-05H7.57786H5.88971V0.365467C5.89327 0.403061 5.89508 0.442743 5.89508 0.482426V2.89053V3.50874C5.89508 4.36714 5.29716 5.06471 4.56139 5.06471H4.0315H1.96741C1.94055 5.06471 1.91191 5.06263 1.88506 5.06054H1.55566V16.6312C1.55566 17.241 1.97994 17.736 2.50267 17.736H3.54098H7.57786ZM7.76941 13.9808H4.45935C4.21231 13.9808 4.0118 13.7468 4.0118 13.4586C4.0118 13.1704 4.21231 12.9365 4.45935 12.9365H7.7712C8.01825 12.9365 8.21875 13.1704 8.21875 13.4586C8.21875 13.7468 8.01646 13.9808 7.76941 13.9808ZM11.0813 11.3158H4.45935C4.21231 11.3158 4.0118 11.0818 4.0118 10.7936C4.0118 10.5054 4.21231 10.2715 4.45935 10.2715H11.0813C11.3283 10.2715 11.5288 10.5054 11.5288 10.7936C11.5288 11.0818 11.3283 11.3158 11.0813 11.3158ZM4.45935 7.44149H11.0813C11.3283 7.44149 11.5288 7.67541 11.5288 7.96363C11.5288 8.25185 11.3283 8.48577 11.0813 8.48577H4.45935C4.21231 8.48577 4.0118 8.25185 4.0118 7.96363C4.0118 7.67541 4.21231 7.44149 4.45935 7.44149Z" fill="#656363"/>
<path d="M1.97122 4.44405H4.56521C4.567 4.44405 4.57058 4.44405 4.57237 4.44405C5.00559 4.43988 5.35647 4.03052 5.36005 3.52509C5.36005 3.523 5.36005 3.51882 5.36005 3.51673V0.488331C5.36005 0.208464 5.16313 0.022583 4.95907 0.022583C4.86061 0.022583 4.76215 0.0643541 4.6798 0.160428L1.68837 3.6504C1.43775 3.9428 1.61498 4.44405 1.97122 4.44405Z" fill="#656363"/>
</g>
<defs>
<clipPath id="clip0">
<rect width="17.1429" height="20" fill="white" transform="translate(0.000488281)"/>
</clipPath>
</defs>
</svg>
