<svg width="20" height="20" viewBox="0 0 20 20" fill="none" xmlns="http://www.w3.org/2000/svg">
<g clip-path="url(#clip0)">
<path d="M9.9997 9.78131C12.2234 9.78131 14.0261 7.59171 14.0261 4.89069C14.0261 2.1896 13.4343 0 9.9997 0C6.56514 0 5.97314 2.1896 5.97314 4.89069C5.97314 7.59171 7.77594 9.78131 9.9997 9.78131Z" fill="#656363"/>
<path d="M2.39481 17.2459C2.39415 17.0866 2.39348 17.201 2.39481 17.2459V17.2459Z" fill="#656363"/>
<path d="M17.6047 17.3746C17.6068 17.3303 17.6054 17.0675 17.6047 17.3746V17.3746Z" fill="#656363"/>
<path d="M17.5968 17.0514C17.5222 12.3461 16.9077 11.0054 12.2053 10.1567C12.2053 10.1567 11.5433 11.0002 10.0005 11.0002C8.45761 11.0002 7.79555 10.1567 7.79555 10.1567C3.14441 10.9961 2.49252 12.317 2.40681 16.8986C2.39978 17.2727 2.39652 17.2923 2.39526 17.2489C2.39555 17.3303 2.39589 17.4808 2.39589 17.7433C2.39589 17.7433 3.51543 20.0002 10.0005 20.0002C16.4854 20.0002 17.605 17.7433 17.605 17.7433C17.605 17.5746 17.6052 17.4574 17.6053 17.3776C17.6041 17.4045 17.6015 17.3524 17.5968 17.0514Z" fill="#656363"/>
</g>
<defs>
<clipPath id="clip0">
<rect width="20" height="20" fill="white"/>
</clipPath>
</defs>
</svg>
